<svg width="166" height="24" viewBox="0 0 166 24" fill="none" xmlns="http://www.w3.org/2000/svg">
<path d="M21.71 3.29C21.617 3.19627 21.5064 3.12188 21.3846 3.07111C21.2627 3.02034 21.132 2.9942 21 2.9942C20.868 2.9942 20.7373 3.02034 20.6154 3.07111C20.4936 3.12188 20.383 3.19627 20.29 3.29L2.29 21.29C2.19627 21.383 2.12188 21.4936 2.07111 21.6154C2.02034 21.7373 1.9942 21.868 1.9942 22C1.9942 22.132 2.02034 22.2627 2.07111 22.3846C2.12188 22.5064 2.19627 22.617 2.29 22.71C2.38296 22.8037 2.49356 22.8781 2.61542 22.9289C2.73728 22.9797 2.86799 23.0058 3 23.0058C3.13201 23.0058 3.26272 22.9797 3.38458 22.9289C3.50644 22.8781 3.61704 22.8037 3.71 22.71L21.71 4.71C21.8037 4.61704 21.8781 4.50644 21.9289 4.38458C21.9797 4.26272 22.0058 4.13201 22.0058 4C22.0058 3.86799 21.9797 3.73728 21.9289 3.61542C21.8781 3.49356 21.8037 3.38296 21.71 3.29Z" fill="#757575"/>
<path d="M69.71 3.29C69.617 3.19627 69.5064 3.12188 69.3846 3.07111C69.2627 3.02034 69.132 2.9942 69 2.9942C68.868 2.9942 68.7373 3.02034 68.6154 3.07111C68.4936 3.12188 68.383 3.19627 68.29 3.29L50.29 21.29C50.1963 21.383 50.1219 21.4936 50.0711 21.6154C50.0203 21.7373 49.9942 21.868 49.9942 22C49.9942 22.132 50.0203 22.2627 50.0711 22.3846C50.1219 22.5064 50.1963 22.617 50.29 22.71C50.383 22.8037 50.4936 22.8781 50.6154 22.9289C50.7373 22.9797 50.868 23.0058 51 23.0058C51.132 23.0058 51.2627 22.9797 51.3846 22.9289C51.5064 22.8781 51.617 22.8037 51.71 22.71L69.71 4.71C69.8037 4.61704 69.8781 4.50644 69.9289 4.38458C69.9797 4.26272 70.0058 4.13201 70.0058 4C70.0058 3.86799 69.9797 3.73728 69.9289 3.61542C69.8781 3.49356 69.8037 3.38296 69.71 3.29Z" fill="#757575"/>
<path d="M93.71 3.29C93.617 3.19627 93.5064 3.12188 93.3846 3.07111C93.2627 3.02034 93.132 2.9942 93 2.9942C92.868 2.9942 92.7373 3.02034 92.6154 3.07111C92.4936 3.12188 92.383 3.19627 92.29 3.29L74.29 21.29C74.1963 21.383 74.1219 21.4936 74.0711 21.6154C74.0203 21.7373 73.9942 21.868 73.9942 22C73.9942 22.132 74.0203 22.2627 74.0711 22.3846C74.1219 22.5064 74.1963 22.617 74.29 22.71C74.383 22.8037 74.4936 22.8781 74.6154 22.9289C74.7373 22.9797 74.868 23.0058 75 23.0058C75.132 23.0058 75.2627 22.9797 75.3846 22.9289C75.5064 22.8781 75.617 22.8037 75.71 22.71L93.71 4.71C93.8037 4.61704 93.8781 4.50644 93.9289 4.38458C93.9797 4.26272 94.0058 4.13201 94.0058 4C94.0058 3.86799 93.9797 3.73728 93.9289 3.61542C93.8781 3.49356 93.8037 3.38296 93.71 3.29Z" fill="#757575"/>
<path d="M117.71 3.29C117.617 3.19627 117.506 3.12188 117.385 3.07111C117.263 3.02034 117.132 2.9942 117 2.9942C116.868 2.9942 116.737 3.02034 116.615 3.07111C116.494 3.12188 116.383 3.19627 116.29 3.29L98.29 21.29C98.1963 21.383 98.1219 21.4936 98.0711 21.6154C98.0203 21.7373 97.9942 21.868 97.9942 22C97.9942 22.132 98.0203 22.2627 98.0711 22.3846C98.1219 22.5064 98.1963 22.617 98.29 22.71C98.383 22.8037 98.4936 22.8781 98.6154 22.9289C98.7373 22.9797 98.868 23.0058 99 23.0058C99.132 23.0058 99.2627 22.9797 99.3846 22.9289C99.5064 22.8781 99.617 22.8037 99.71 22.71L117.71 4.71C117.804 4.61704 117.878 4.50644 117.929 4.38458C117.98 4.26272 118.006 4.13201 118.006 4C118.006 3.86799 117.98 3.73728 117.929 3.61542C117.878 3.49356 117.804 3.38296 117.71 3.29Z" fill="#757575"/>
<path d="M141.71 3.29C141.617 3.19627 141.506 3.12188 141.385 3.07111C141.263 3.02034 141.132 2.9942 141 2.9942C140.868 2.9942 140.737 3.02034 140.615 3.07111C140.494 3.12188 140.383 3.19627 140.29 3.29L122.29 21.29C122.196 21.383 122.122 21.4936 122.071 21.6154C122.02 21.7373 121.994 21.868 121.994 22C121.994 22.132 122.02 22.2627 122.071 22.3846C122.122 22.5064 122.196 22.617 122.29 22.71C122.383 22.8037 122.494 22.8781 122.615 22.9289C122.737 22.9797 122.868 23.0058 123 23.0058C123.132 23.0058 123.263 22.9797 123.385 22.9289C123.506 22.8781 123.617 22.8037 123.71 22.71L141.71 4.71C141.804 4.61704 141.878 4.50644 141.929 4.38458C141.98 4.26272 142.006 4.13201 142.006 4C142.006 3.86799 141.98 3.73728 141.929 3.61542C141.878 3.49356 141.804 3.38296 141.71 3.29Z" fill="#757575"/>
<path d="M163.71 3.29C163.617 3.19627 163.506 3.12188 163.385 3.07111C163.263 3.02034 163.132 2.9942 163 2.9942C162.868 2.9942 162.737 3.02034 162.615 3.07111C162.494 3.12188 162.383 3.19627 162.29 3.29L144.29 21.29C144.196 21.383 144.122 21.4936 144.071 21.6154C144.02 21.7373 143.994 21.868 143.994 22C143.994 22.132 144.02 22.2627 144.071 22.3846C144.122 22.5064 144.196 22.617 144.29 22.71C144.383 22.8037 144.494 22.8781 144.615 22.9289C144.737 22.9797 144.868 23.0058 145 23.0058C145.132 23.0058 145.263 22.9797 145.385 22.9289C145.506 22.8781 145.617 22.8037 145.71 22.71L163.71 4.71C163.804 4.61704 163.878 4.50644 163.929 4.38458C163.98 4.26272 164.006 4.13201 164.006 4C164.006 3.86799 163.98 3.73728 163.929 3.61542C163.878 3.49356 163.804 3.38296 163.71 3.29Z" fill="#757575"/>
<path d="M45.71 3.29C45.617 3.19627 45.5064 3.12188 45.3846 3.07111C45.2627 3.02034 45.132 2.9942 45 2.9942C44.868 2.9942 44.7373 3.02034 44.6154 3.07111C44.4936 3.12188 44.383 3.19627 44.29 3.29L26.29 21.29C26.1963 21.383 26.1219 21.4936 26.0711 21.6154C26.0203 21.7373 25.9942 21.868 25.9942 22C25.9942 22.132 26.0203 22.2627 26.0711 22.3846C26.1219 22.5064 26.1963 22.617 26.29 22.71C26.383 22.8037 26.4936 22.8781 26.6154 22.9289C26.7373 22.9797 26.868 23.0058 27 23.0058C27.132 23.0058 27.2627 22.9797 27.3846 22.9289C27.5064 22.8781 27.617 22.8037 27.71 22.71L45.71 4.71C45.8037 4.61704 45.8781 4.50644 45.9289 4.38458C45.9797 4.26272 46.0058 4.13201 46.0058 4C46.0058 3.86799 45.9797 3.73728 45.9289 3.61542C45.8781 3.49356 45.8037 3.38296 45.71 3.29Z" fill="#757575"/>
</svg>
