<svg width="50" height="50" viewBox="0 0 50 50" fill="none" xmlns="http://www.w3.org/2000/svg">
<path d="M25.0001 13.5415C26.3814 13.5415 27.7062 14.0902 28.6829 15.067C29.6597 16.0437 30.2084 17.3685 30.2084 18.7498C30.2084 19.4338 30.0737 20.1111 29.812 20.743C29.5502 21.3749 29.1666 21.949 28.6829 22.4327C28.1993 22.9163 27.6251 23.3 26.9932 23.5617C26.3613 23.8235 25.6841 23.9582 25.0001 23.9582C23.6188 23.9582 22.294 23.4094 21.3172 22.4327C20.3405 21.4559 19.7918 20.1312 19.7918 18.7498C19.7918 17.3685 20.3405 16.0437 21.3172 15.067C22.294 14.0902 23.6188 13.5415 25.0001 13.5415ZM25.0001 4.1665C28.8678 4.1665 32.5772 5.70296 35.3121 8.43786C38.047 11.1728 39.5834 14.8821 39.5834 18.7498C39.5834 29.6873 25.0001 45.8332 25.0001 45.8332C25.0001 45.8332 10.4167 29.6873 10.4167 18.7498C10.4167 14.8821 11.9532 11.1728 14.6881 8.43786C17.423 5.70296 21.1323 4.1665 25.0001 4.1665ZM25.0001 8.33317C22.2374 8.33317 19.5879 9.43064 17.6344 11.3841C15.6809 13.3376 14.5834 15.9872 14.5834 18.7498C14.5834 20.8332 14.5834 24.9998 25.0001 38.979C35.4168 24.9998 35.4168 20.8332 35.4168 18.7498C35.4168 15.9872 34.3193 13.3376 32.3658 11.3841C30.4123 9.43064 27.7628 8.33317 25.0001 8.33317Z" fill="#FFC108"/>
</svg>
