<svg width="50" height="50" viewBox="0 0 50 50" fill="none" xmlns="http://www.w3.org/2000/svg">
<path d="M20.9124 11.0751L22.2645 13.4981C23.4833 15.6856 22.9937 18.5522 21.0729 20.4751C21.0729 20.4751 18.7395 22.8064 22.9687 27.0335C27.1916 31.2564 29.5249 28.9293 29.5249 28.9293C31.4479 27.0064 34.3166 26.5168 36.502 27.7356L38.9249 29.0897C42.227 30.9314 42.6166 35.5606 39.7145 38.4647C37.9708 40.2064 35.8333 41.5647 33.4729 41.6522C29.4979 41.8043 22.7458 40.7981 15.9729 34.0272C9.20203 27.2543 8.19578 20.5022 8.34786 16.5272C8.43744 14.1668 9.79369 12.0293 11.5354 10.2856C14.4395 7.38347 19.0687 7.77306 20.9104 11.0772L20.9124 11.0751Z" stroke="#FFC108" stroke-width="1.5" stroke-linecap="round"/>
</svg>
