<svg width="16" height="16" viewBox="0 0 16 16" fill="none" xmlns="http://www.w3.org/2000/svg">
<path fill-rule="evenodd" clip-rule="evenodd" d="M11.25 1C11.4489 1 11.6397 1.07902 11.7803 1.21967C11.921 1.36032 12 1.55109 12 1.75V3H14C14.2652 3 14.5196 3.10536 14.7071 3.29289C14.8946 3.48043 15 3.73478 15 4V14C15 14.2652 14.8946 14.5196 14.7071 14.7071C14.5196 14.8946 14.2652 15 14 15H2C1.73478 15 1.48043 14.8946 1.29289 14.7071C1.10536 14.5196 1 14.2652 1 14V4C1 3.73478 1.10536 3.48043 1.29289 3.29289C1.48043 3.10536 1.73478 3 2 3H4V1.75C4 1.55109 4.07902 1.36032 4.21967 1.21967C4.36032 1.07902 4.55109 1 4.75 1C4.94891 1 5.13968 1.07902 5.28033 1.21967C5.42098 1.36032 5.5 1.55109 5.5 1.75V3H10.5V1.75C10.5 1.55109 10.579 1.36032 10.7197 1.21967C10.8603 1.07902 11.0511 1 11.25 1ZM2.5 7.5V13.5H13.5V7.5H2.5ZM2.5 6H13.5V4.5H2.5V6ZM10.28 8.97C10.4205 9.11063 10.4993 9.30125 10.4993 9.5C10.4993 9.69875 10.4205 9.88937 10.28 10.03L8.03 12.28C7.88937 12.4205 7.69875 12.4993 7.5 12.4993C7.30125 12.4993 7.11063 12.4205 6.97 12.28L5.72 11.03C5.64631 10.9613 5.58721 10.8785 5.54622 10.7865C5.50523 10.6945 5.48319 10.5952 5.48141 10.4945C5.47963 10.3938 5.49816 10.2938 5.53588 10.2004C5.5736 10.107 5.62974 10.0222 5.70096 9.95096C5.77218 9.87974 5.85701 9.8236 5.9504 9.78588C6.04379 9.74816 6.14382 9.72963 6.24452 9.73141C6.34523 9.73318 6.44454 9.75523 6.53654 9.79622C6.62854 9.83721 6.71134 9.89631 6.78 9.97L7.5 10.69L9.22 8.97C9.36063 8.82955 9.55125 8.75066 9.75 8.75066C9.94875 8.75066 10.1394 8.82955 10.28 8.97Z" fill="white"/>
</svg>
