<svg width="24" height="24" viewBox="0 0 24 24" fill="none" xmlns="http://www.w3.org/2000/svg">
<path fill-rule="evenodd" clip-rule="evenodd" d="M16 21.75C17.525 21.75 18.9875 21.1442 20.0659 20.0659C21.1442 18.9875 21.75 17.525 21.75 16V8C21.75 6.47501 21.1442 5.01247 20.0659 3.93414C18.9875 2.8558 17.525 2.25 16 2.25H8C6.47501 2.25 5.01247 2.8558 3.93414 3.93414C2.8558 5.01247 2.25 6.47501 2.25 8V16C2.25 17.525 2.8558 18.9875 3.93414 20.0659C5.01247 21.1442 6.47501 21.75 8 21.75H16ZM13.711 5.763C13.6544 5.59444 13.5398 5.45147 13.3876 5.35959C13.2353 5.26771 13.0554 5.2329 12.8799 5.26137C12.7044 5.28985 12.5447 5.37974 12.4293 5.51503C12.314 5.65032 12.2504 5.8222 12.25 6V15C12.25 15.445 12.118 15.88 11.8708 16.25C11.6236 16.62 11.2722 16.9084 10.861 17.0787C10.4499 17.249 9.9975 17.2936 9.56105 17.2068C9.12459 17.1199 8.72368 16.9057 8.40901 16.591C8.09434 16.2763 7.88005 15.8754 7.79323 15.439C7.70642 15.0025 7.75097 14.5501 7.92127 14.139C8.09157 13.7278 8.37996 13.3764 8.74997 13.1292C9.11998 12.882 9.55499 12.75 10 12.75C10.1989 12.75 10.3897 12.671 10.5303 12.5303C10.671 12.3897 10.75 12.1989 10.75 12C10.75 11.8011 10.671 11.6103 10.5303 11.4697C10.3897 11.329 10.1989 11.25 10 11.25C9.25832 11.25 8.5333 11.4699 7.91661 11.882C7.29993 12.294 6.81928 12.8797 6.53545 13.5649C6.25162 14.2502 6.17736 15.0042 6.32206 15.7316C6.46675 16.459 6.8239 17.1272 7.34835 17.6517C7.8728 18.1761 8.54098 18.5332 9.26841 18.6779C9.99584 18.8226 10.7498 18.7484 11.4351 18.4645C12.1203 18.1807 12.706 17.7001 13.118 17.0834C13.5301 16.4667 13.75 15.7417 13.75 15V8.458C14.517 9.17 15.597 9.75 17 9.75C17.1989 9.75 17.3897 9.67098 17.5303 9.53033C17.671 9.38968 17.75 9.19891 17.75 9C17.75 8.80109 17.671 8.61032 17.5303 8.46967C17.3897 8.32902 17.1989 8.25 17 8.25C16.028 8.25 15.289 7.85 14.741 7.331C14.181 6.799 13.843 6.158 13.711 5.763Z" fill="#FFC108"/>
</svg>
